<svg width="357" height="187" viewBox="0 0 357 187" fill="none" xmlns="http://www.w3.org/2000/svg">
<path d="M247.141 49.8692C247.141 56.4822 249.77 62.8244 254.45 67.5006C259.129 72.1767 265.476 74.8038 272.094 74.8038C278.712 74.8038 285.059 72.1767 289.738 67.5006C294.418 62.8244 297.047 56.4822 297.047 49.8692C297.047 43.2561 294.418 36.9139 289.738 32.2377C285.059 27.5616 278.712 24.9346 272.094 24.9346C265.476 24.9346 259.129 27.5616 254.45 32.2377C249.77 36.9139 247.141 43.2561 247.141 49.8692Z" fill="#CCAC00"/>
<path fill-rule="evenodd" clip-rule="evenodd" d="M272.094 5.1947C271.267 5.1947 270.473 5.52308 269.888 6.1076C269.304 6.69212 268.975 7.48489 268.975 8.31153V12.4673C268.975 13.2939 269.304 14.0867 269.888 14.6712C270.473 15.2557 271.267 15.5841 272.094 15.5841C272.921 15.5841 273.715 15.2557 274.3 14.6712C274.885 14.0867 275.213 13.2939 275.213 12.4673V8.31153C275.213 7.48489 274.885 6.69212 274.3 6.1076C273.715 5.52308 272.921 5.1947 272.094 5.1947ZM303.705 18.2812C303.121 17.6975 302.328 17.3697 301.501 17.3697C300.675 17.3697 299.882 17.6975 299.297 18.2812L297.663 19.9103C297.094 20.4978 296.779 21.285 296.786 22.1022C296.793 22.9195 297.12 23.7014 297.698 24.2795C298.277 24.8577 299.059 25.1858 299.877 25.1933C300.694 25.2008 301.482 24.887 302.071 24.3195L303.705 22.6863C304.289 22.1019 304.618 21.3097 304.618 20.4838C304.618 19.6578 304.289 18.8656 303.705 18.2812ZM240.483 18.2812C239.899 18.8656 239.571 19.6578 239.571 20.4838C239.571 21.3097 239.899 22.1019 240.483 22.6863L242.117 24.3195C242.708 24.8701 243.491 25.1698 244.299 25.1556C245.107 25.1413 245.878 24.8142 246.449 24.2432C247.021 23.6721 247.348 22.9017 247.362 22.0942C247.376 21.2868 247.076 20.5053 246.526 19.9144L244.891 18.2812C244.306 17.6975 243.513 17.3697 242.687 17.3697C241.86 17.3697 241.068 17.6975 240.483 18.2812ZM316.802 49.8692C316.802 49.0426 316.473 48.2498 315.888 47.6653C315.303 47.0807 314.51 46.7524 313.682 46.7524H309.524C308.696 46.7524 307.903 47.0807 307.318 47.6653C306.733 48.2498 306.404 49.0426 306.404 49.8692C306.404 50.6958 306.733 51.4886 307.318 52.0731C307.903 52.6576 308.696 52.986 309.524 52.986H313.682C314.51 52.986 315.303 52.6576 315.888 52.0731C316.473 51.4886 316.802 50.6958 316.802 49.8692ZM237.784 49.8692C237.784 49.0426 237.455 48.2498 236.87 47.6653C236.285 47.0807 235.492 46.7524 234.665 46.7524H230.506C229.678 46.7524 228.885 47.0807 228.3 47.6653C227.715 48.2498 227.387 49.0426 227.387 49.8692C227.387 50.6958 227.715 51.4886 228.3 52.0731C228.885 52.6576 229.678 52.986 230.506 52.986H234.665C235.492 52.986 236.285 52.6576 236.87 52.0731C237.455 51.4886 237.784 50.6958 237.784 49.8692ZM246.526 75.4188C245.941 74.8352 245.148 74.5073 244.321 74.5073C243.495 74.5073 242.702 74.8352 242.117 75.4188L240.483 77.0521C240.176 77.3374 239.93 77.6815 239.76 78.0638C239.59 78.4462 239.498 78.8589 239.49 79.2774C239.483 79.6959 239.56 80.1116 239.717 80.4997C239.874 80.8878 240.107 81.2403 240.404 81.5363C240.7 81.8323 241.053 82.0656 241.441 82.2223C241.829 82.3791 242.245 82.4561 242.664 82.4487C243.083 82.4413 243.496 82.3497 243.879 82.1794C244.261 82.009 244.606 81.7634 244.891 81.4572L246.526 79.824C247.11 79.2395 247.438 78.4474 247.438 77.6214C247.438 76.7954 247.11 76.0033 246.526 75.4188ZM297.663 75.4188C297.078 76.0033 296.75 76.7954 296.75 77.6214C296.75 78.4474 297.078 79.2395 297.663 79.824L299.297 81.4572C299.583 81.7634 299.927 82.009 300.309 82.1794C300.692 82.3497 301.105 82.4413 301.524 82.4487C301.943 82.4561 302.359 82.3791 302.747 82.2223C303.136 82.0656 303.488 81.8323 303.785 81.5363C304.081 81.2403 304.314 80.8878 304.471 80.4997C304.628 80.1116 304.705 79.6959 304.698 79.2774C304.69 78.8589 304.599 78.4462 304.428 78.0638C304.258 77.6815 304.012 77.3374 303.705 77.0521L302.075 75.4188C301.785 75.1292 301.441 74.8994 301.063 74.7427C300.684 74.5859 300.279 74.5052 299.869 74.5052C299.459 74.5052 299.053 74.5859 298.675 74.7427C298.296 74.8994 297.952 75.1292 297.663 75.4188ZM272.094 84.1543C271.267 84.1543 270.473 84.4826 269.888 85.0672C269.304 85.6517 268.975 86.4445 268.975 87.2711V91.4269C268.975 92.2535 269.304 93.0463 269.888 93.6308C270.473 94.2153 271.267 94.5437 272.094 94.5437C272.921 94.5437 273.715 94.2153 274.3 93.6308C274.885 93.0463 275.213 92.2535 275.213 91.4269V87.2711C275.213 86.4445 274.885 85.6517 274.3 85.0672C273.715 84.4826 272.921 84.1543 272.094 84.1543Z" fill="#CCAC00"/>
<path d="M143.9 164.113C143.9 169.227 145.113 173.833 147.048 177.143C148.989 180.465 151.599 182.397 154.38 182.397C157.16 182.397 159.77 180.465 161.711 177.143C163.646 173.833 164.859 169.227 164.859 164.113C164.859 158.999 163.646 154.393 161.711 151.083C159.77 147.761 157.16 145.829 154.38 145.829C151.599 145.829 148.989 147.761 147.048 151.083C145.113 154.393 143.9 158.999 143.9 164.113Z" stroke="black"/>
<path d="M152.218 164.113C152.218 165.376 152.502 166.495 152.935 167.28C153.379 168.083 153.91 168.434 154.38 168.434C154.849 168.434 155.381 168.083 155.824 167.28C156.258 166.495 156.541 165.376 156.541 164.113C156.541 162.85 156.258 161.731 155.824 160.946C155.381 160.143 154.849 159.792 154.38 159.792C153.91 159.792 153.379 160.143 152.935 160.946C152.502 161.731 152.218 162.85 152.218 164.113Z" stroke="black"/>
<path d="M154.546 182.565C162.265 182.565 167.965 180.238 169.85 179.074" stroke="black"/>
<path d="M80.0206 150.15C80.0206 153.71 80.7957 156.909 82.0242 159.199C83.2638 161.511 84.8921 162.782 86.564 162.782C88.2358 162.782 89.8641 161.511 91.1037 159.199C92.3322 156.909 93.1073 153.71 93.1073 150.15C93.1073 146.589 92.3322 143.391 91.1037 141.1C89.8641 138.789 88.2358 137.518 86.564 137.518C84.8921 137.518 83.2638 138.789 82.0242 141.1C80.7957 143.391 80.0206 146.589 80.0206 150.15Z" stroke="black"/>
<path d="M85.3565 150.15C85.3565 151.019 85.536 151.781 85.8027 152.307C86.0835 152.861 86.3805 153.02 86.564 153.02C86.7476 153.02 87.0445 152.861 87.3254 152.307C87.592 151.781 87.7715 151.019 87.7715 150.15C87.7715 149.281 87.592 148.519 87.3254 147.993C87.0445 147.438 86.7476 147.28 86.564 147.28C86.3805 147.28 86.0835 147.438 85.8027 147.993C85.536 148.519 85.3565 149.281 85.3565 150.15Z" stroke="black"/>
<path d="M86.6707 163.05C91.6223 163.05 95.2792 161.423 96.4886 160.609" stroke="black"/>
<path d="M97.4868 162.617L145.563 177.412C135.049 158.395 147.615 144.221 155.211 139.511C167.455 136.32 169.518 159.127 172.845 183.562C173.91 189.414 224.636 179.24 249.866 173.422C247.737 172.89 252.417 160.013 255.023 153.641C254.192 123.221 205.45 126.379 206.615 126.047C207.546 125.781 184.601 115.186 173.011 109.922C170.216 108.858 144.01 109.479 131.257 109.922C121.009 105.002 95.6569 119.021 99.6494 122.556C91.5314 120.96 85.8421 128.319 84.0122 132.197C93.5941 124.085 96.9877 149.097 97.4868 162.617Z" fill="#BFA100"/>
<path d="M146.228 128.042C146.284 128.374 159.869 127.532 197.798 125.671C199.395 124.607 179.388 115.63 171.181 110.754L135.249 111.751C139.242 111.884 144.232 122.667 146.228 128.042Z" fill="black" stroke="black"/>
<path d="M127.098 112.415C133.086 110.953 137.578 124.218 139.075 131.033C126.432 130.812 101.313 128.839 101.978 122.722C102.644 116.604 119.002 113.302 127.098 112.415Z" fill="black" stroke="black"/>
<path d="M202.955 147.491C200.016 142.947 189.68 134.492 171.847 137.018C178.113 142.947 193.107 153.342 202.955 147.491Z" fill="#FFF3B0"/>
<path d="M207.613 157.797C208.278 154.606 236.17 153.143 250.033 152.81C250.033 155.858 249.733 162.851 248.536 166.441C247.038 170.929 216.263 169.766 210.607 168.935C204.951 168.103 206.781 161.787 207.613 157.797Z" fill="#FFF3B0"/>
<path d="M247.371 143.501C247.316 140.011 244.377 132.63 233.065 131.034C237.113 135.633 245.641 144.565 247.371 143.501Z" fill="#FFF3B0"/>
<path d="M180.331 162.618C193.373 158.495 202.733 170.209 205.783 176.581C204.851 178.975 190.645 178.133 183.658 177.412C177.669 174.487 178.944 166.33 180.331 162.618Z" fill="#FFF3B0"/>
<path d="M99.3167 159.625C99.2612 160.179 107.701 163.881 141.903 174.253C144.299 174.253 140.905 171.372 138.909 169.931C135.914 168.103 100.98 156.134 99.3167 156.467C97.9858 156.733 98.7622 158.683 99.3167 159.625Z" fill="#FFF3B0"/>
<path d="M98.8176 184.848C67.3768 177.534 3.99619 153.132 1.99995 114.034" stroke="black" stroke-width="3"/>
<path d="M252.362 172.88C325.424 188.306 351.897 185.735 356 182.521" stroke="black" stroke-width="3"/>
<path d="M232.127 141.886C228.503 142.494 224.86 142.892 221.201 143.196C220.2 143.28 219.21 143.452 218.206 143.507C217.513 143.545 216.821 143.502 216.132 143.592C215.195 143.716 214.293 143.751 213.35 143.751C212.715 143.751 212.129 144.08 211.483 144.08" stroke="#FFF3B0" stroke-width="3" stroke-linecap="round"/>
<path d="M132.807 142.057C126.136 140.848 119.533 139.568 112.98 137.829C111.751 137.503 110.27 137.278 109.192 136.74" stroke="#FFF3B0" stroke-width="3" stroke-linecap="round"/>
<path d="M214.109 54.2503V123.245" stroke="black" stroke-linecap="round"/>
<path d="M214.585 54.7262C213.289 53.4305 208.407 54.2503 206.39 54.2503C202.936 54.2503 199.482 54.2503 196.028 54.2503C192.539 54.2503 189.049 54.2503 185.56 54.2503" stroke="black" stroke-linecap="round"/>
<path d="M185.084 54.2503V106.115" stroke="black" stroke-linecap="round"/>
<path d="M196.504 15.7084V53.2986" stroke="black" stroke-linecap="round"/>
<path d="M163.672 16.1842V98.9779" stroke="black" stroke-linecap="round"/>
<path d="M164.624 33.7898H119.42" stroke="black" stroke-linecap="round"/>
<path d="M119.896 34.2656V104.688" stroke="black" stroke-linecap="round"/>
<path d="M119.42 62.3394C107.736 62.3394 96.0517 62.3394 84.3675 62.3394C81.6343 62.3394 82.0588 62.2322 82.3056 65.1943" stroke="black" stroke-linecap="round"/>
<path d="M82.3055 63.7668V122.769" stroke="black" stroke-linecap="round"/>
<path d="M243.305 96.9536H214.71" stroke="black" stroke-linecap="round"/>
<path d="M243.305 98.8287V129.299" stroke="black" stroke-linecap="round"/>
<path d="M209.553 67.4211H194.084" stroke="black" stroke-linecap="round"/>
<path d="M208.147 83.3593H194.553" stroke="black" stroke-linecap="round"/>
<path d="M205.803 103.516H193.615" stroke="black" stroke-linecap="round"/>
<path d="M188.928 34.1385H174.396" stroke="black" stroke-linecap="round"/>
<path d="M185.646 44.9202H175.802" stroke="black" stroke-linecap="round"/>
<path d="M154.707 44.9202H131.738" stroke="black" stroke-linecap="round"/>
<path d="M154.707 61.3271H132.206" stroke="black" stroke-linecap="round"/>
<path d="M153.77 79.1404H135.957" stroke="black" stroke-linecap="round"/>
<path d="M177.677 62.7335H171.114" stroke="black" stroke-linecap="round"/>
<path d="M177.677 76.7965H172.052" stroke="black" stroke-linecap="round"/>
<path d="M177.677 89.4533H172.052" stroke="black" stroke-linecap="round"/>
<path d="M108.545 72.2332H93.4028" stroke="black" stroke-linecap="round"/>
<path d="M108.545 84.3472H95.1334" stroke="black" stroke-linecap="round"/>
<path d="M109.843 100.788H96.4314" stroke="black" stroke-linecap="round"/>
<path d="M235.742 106.845H224.061" stroke="black" stroke-linecap="round"/>
<path d="M234.011 118.093H224.493" stroke="black" stroke-linecap="round"/>
<path d="M196.779 15.2737H162.923" stroke="black" stroke-linecap="round"/>
</svg>
