<svg width="40" height="40" viewBox="0 0 40 40" fill="none" xmlns="http://www.w3.org/2000/svg">
<g clip-path="url(#clip0_1261_7610)">
<rect width="40" height="40" rx="8" fill="url(#paint0_linear_1261_7610)" fill-opacity="0.5"/>
<g filter="url(#filter0_d_1261_7610)">
<path d="M12 20L12.5 7.9999" stroke="#341212" stroke-width="5" stroke-linecap="round"/>
</g>
<g filter="url(#filter1_i_1261_7610)">
<path d="M15.4233 5.05302C14.62 4.09795 14.7582 2.64724 15.8658 2.07234C17.052 1.45669 18.3412 1.04157 19.6767 0.851342C21.77 0.553191 23.8958 0.819128 25.8196 1.61981C27.7434 2.42049 29.3903 3.72479 30.5786 5.38878C31.767 7.05277 32.4505 9.01178 32.5539 11.0496C32.6573 13.0875 32.1765 15.1249 31.1645 16.9372C30.1525 18.7495 28.6487 20.2661 26.819 21.3198C24.9893 22.3734 22.9048 22.9231 20.7956 22.9081C19.4812 22.8988 18.1889 22.6704 16.9737 22.2384C15.7707 21.8108 15.4532 20.3507 16.1593 19.2869V19.2869C16.8283 18.2789 18.1769 18.0218 19.3544 18.2998C19.8645 18.4202 20.3907 18.4837 20.9229 18.4874C22.1912 18.4964 23.4446 18.1659 24.5447 17.5324C25.6449 16.8988 26.5492 15.9869 27.1577 14.8972C27.7662 13.8075 28.0553 12.5823 27.9931 11.357C27.931 10.1316 27.5199 8.95369 26.8054 7.95314C26.0908 6.95259 25.1006 6.16832 23.9438 5.68687C22.7871 5.20543 21.5088 5.04552 20.2501 5.2248C19.7088 5.3019 19.1801 5.44045 18.6746 5.63595C17.5553 6.06881 16.1957 5.97147 15.4233 5.05302V5.05302Z" fill="#FFD700"/>
</g>
<g filter="url(#filter2_d_1261_7610)">
<path fill-rule="evenodd" clip-rule="evenodd" d="M29.4692 24.2962C28.5282 22.9325 26.6598 22.5899 25.2962 23.5309C23.9325 24.4719 23.5899 26.3403 24.5309 27.704L31.2796 37.4836C32.2206 38.8473 34.0889 39.1899 35.4526 38.2489C36.8163 37.3079 37.1589 35.4395 36.2179 34.0759L29.4692 24.2962ZM32.6243 36.8639C33.8322 36.9959 34.9183 36.1237 35.0503 34.9159C35.1823 33.708 34.3101 32.6219 33.1023 32.4899C31.8944 32.3579 30.8083 33.2301 30.6763 34.4379C30.5443 35.6458 31.4165 36.7319 32.6243 36.8639Z" fill="#341212"/>
</g>
<path fill-rule="evenodd" clip-rule="evenodd" d="M32.6677 36.4661C33.656 36.5741 34.5446 35.8605 34.6526 34.8723C34.7606 33.884 34.047 32.9954 33.0588 32.8874C32.0705 32.7794 31.1819 33.493 31.0739 34.4812C30.9659 35.4695 31.6795 36.3581 32.6677 36.4661ZM32.7546 35.6708C33.3036 35.7308 33.7973 35.3344 33.8573 34.7854C33.9173 34.2364 33.5209 33.7427 32.9719 33.6827C32.4228 33.6227 31.9291 34.0191 31.8692 34.5681C31.8092 35.1172 32.2056 35.6109 32.7546 35.6708Z" fill="black"/>
<path fill-rule="evenodd" clip-rule="evenodd" d="M9.50305 19.8762L9.09635 28.0795L8.68964 36.2828C8.62127 37.6618 9.68376 38.8351 11.0628 38.9035C12.4418 38.9719 13.6151 37.9094 13.6835 36.5304L14.0902 28.3271L14.4969 20.1238L9.50305 19.8762ZM9.63579 36.5926C10.5194 37.4266 11.9117 37.3865 12.7458 36.5029C13.5798 35.6193 13.5396 34.2269 12.656 33.3929C11.7724 32.5589 10.3801 32.5991 9.54605 33.4826C8.71203 34.3662 8.75221 35.7586 9.63579 36.5926Z" fill="#341212"/>
<path fill-rule="evenodd" clip-rule="evenodd" d="M9.91133 36.3018C10.6344 36.9841 11.7736 36.951 12.4558 36.228C13.1381 35.505 13.1051 34.3657 12.382 33.6835C11.659 33.0012 10.5198 33.0343 9.83752 33.7573C9.15526 34.4803 9.1883 35.6195 9.91133 36.3018ZM10.4604 35.7199C10.8621 36.099 11.495 36.0806 11.874 35.6789C12.253 35.2773 12.2347 34.6444 11.833 34.2653C11.4313 33.8863 10.7984 33.9046 10.4194 34.3063C10.0403 34.708 10.0587 35.3409 10.4604 35.7199Z" fill="black"/>
</g>
<defs>
<filter id="filter0_d_1261_7610" x="5.5" y="5.49988" width="13.5" height="25.0001" filterUnits="userSpaceOnUse" color-interpolation-filters="sRGB">
<feFlood flood-opacity="0" result="BackgroundImageFix"/>
<feColorMatrix in="SourceAlpha" type="matrix" values="0 0 0 0 0 0 0 0 0 0 0 0 0 0 0 0 0 0 127 0" result="hardAlpha"/>
<feOffset dy="4"/>
<feGaussianBlur stdDeviation="2"/>
<feComposite in2="hardAlpha" operator="out"/>
<feColorMatrix type="matrix" values="0 0 0 0 0 0 0 0 0 0 0 0 0 0 0 0 0 0 0.25 0"/>
<feBlend mode="normal" in2="BackgroundImageFix" result="effect1_dropShadow_1261_7610"/>
<feBlend mode="normal" in="SourceGraphic" in2="effect1_dropShadow_1261_7610" result="shape"/>
</filter>
<filter id="filter1_i_1261_7610" x="14.9114" y="0.732544" width="17.6562" height="23.6759" filterUnits="userSpaceOnUse" color-interpolation-filters="sRGB">
<feFlood flood-opacity="0" result="BackgroundImageFix"/>
<feBlend mode="normal" in="SourceGraphic" in2="BackgroundImageFix" result="shape"/>
<feColorMatrix in="SourceAlpha" type="matrix" values="0 0 0 0 0 0 0 0 0 0 0 0 0 0 0 0 0 0 127 0" result="hardAlpha"/>
<feOffset dy="4"/>
<feGaussianBlur stdDeviation="0.75"/>
<feComposite in2="hardAlpha" operator="arithmetic" k2="-1" k3="1"/>
<feColorMatrix type="matrix" values="0 0 0 0 0 0 0 0 0 0 0 0 0 0 0 0 0 0 0.25 0"/>
<feBlend mode="normal" in2="shape" result="effect1_innerShadow_1261_7610"/>
</filter>
<filter id="filter2_d_1261_7610" x="19.9998" y="22.9998" width="20.7493" height="23.7803" filterUnits="userSpaceOnUse" color-interpolation-filters="sRGB">
<feFlood flood-opacity="0" result="BackgroundImageFix"/>
<feColorMatrix in="SourceAlpha" type="matrix" values="0 0 0 0 0 0 0 0 0 0 0 0 0 0 0 0 0 0 127 0" result="hardAlpha"/>
<feOffset dy="4"/>
<feGaussianBlur stdDeviation="2"/>
<feComposite in2="hardAlpha" operator="out"/>
<feColorMatrix type="matrix" values="0 0 0 0 0 0 0 0 0 0 0 0 0 0 0 0 0 0 0.25 0"/>
<feBlend mode="normal" in2="BackgroundImageFix" result="effect1_dropShadow_1261_7610"/>
<feBlend mode="normal" in="SourceGraphic" in2="effect1_dropShadow_1261_7610" result="shape"/>
</filter>
<linearGradient id="paint0_linear_1261_7610" x1="20" y1="0" x2="20" y2="40" gradientUnits="userSpaceOnUse">
<stop offset="0.9999" stop-color="#FFF3B0"/>
<stop offset="1" stop-color="#CCAC00"/>
</linearGradient>
<clipPath id="clip0_1261_7610">
<rect width="40" height="40" rx="8" fill="white"/>
</clipPath>
</defs>
</svg>
